<svg viewBox='0 0 14 14' fill="none" xmlns="http://www.w3.org/2000/svg"><path d="M4.173.333h1.494a.667.667 0 0 1 0 1.334H4.2c-.571 0-.96 0-1.26.025-.292.024-.441.067-.545.12-.251.128-.455.332-.583.583-.053.104-.096.253-.12.546-.025.3-.025.688-.025 1.259v5.6c0 .571 0 .96.025 1.26.024.292.067.441.12.545.128.251.332.455.583.583.104.053.253.096.546.12.3.025.688.025 1.259.025h5.6c.571 0 .96 0 1.26-.025.292-.024.441-.067.545-.12.251-.128.455-.332.583-.583.053-.104.096-.253.12-.546.025-.3.025-.688.025-1.259V8.333a.667.667 0 0 1 1.334 0v1.495c0 .536 0 .98-.03 1.34-.03.375-.096.72-.26 1.043-.257.501-.665.91-1.166 1.165-.324.165-.668.23-1.043.261-.36.03-.804.03-1.34.03H4.172c-.536 0-.979 0-1.34-.03-.375-.03-.719-.096-1.043-.261a2.667 2.667 0 0 1-1.165-1.165c-.165-.324-.23-.668-.261-1.043-.03-.36-.03-.804-.03-1.34V4.172c0-.536 0-.98.03-1.34.03-.375.096-.72.261-1.043.256-.501.664-.91 1.165-1.165.324-.165.668-.23 1.043-.261.361-.03.804-.03 1.34-.03Z" fill="#2D2849"/><path d="M8.333 1c0-.368.299-.667.667-.667h4c.368 0 .667.299.667.667v4a.667.667 0 0 1-1.334 0V2.61L7.471 7.47a.667.667 0 1 1-.942-.942l4.862-4.862H9A.667.667 0 0 1 8.333 1Z" fill="#2D2849"/></svg>